<?xml version="1.0" encoding="utf-8" standalone="no"?>
<!DOCTYPE svg PUBLIC "-//W3C//DTD SVG 1.1//EN"
  "http://www.w3.org/Graphics/SVG/1.1/DTD/svg11.dtd">
<svg xmlns:xlink="http://www.w3.org/1999/xlink" width="153.9pt" height="89.659636pt" viewBox="0 0 153.9 89.659636" xmlns="http://www.w3.org/2000/svg" version="1.1">
 <metadata>
  <rdf:RDF xmlns:dc="http://purl.org/dc/elements/1.1/" xmlns:cc="http://creativecommons.org/ns#" xmlns:rdf="http://www.w3.org/1999/02/22-rdf-syntax-ns#">
   <cc:Work>
    <dc:type rdf:resource="http://purl.org/dc/dcmitype/StillImage"/>
    <dc:date>2026-07-10T15:42:12.701019</dc:date>
    <dc:format>image/svg+xml</dc:format>
    <dc:creator>
     <cc:Agent>
      <dc:title>Matplotlib v3.8.4, https://matplotlib.org/</dc:title>
     </cc:Agent>
    </dc:creator>
   </cc:Work>
  </rdf:RDF>
 </metadata>
 <defs>
  <style type="text/css">*{stroke-linejoin: round; stroke-linecap: butt}</style>
 </defs>
 <g id="figure_1">
  <g id="patch_1">
   <path d="M 0 89.659636 
L 153.9 89.659636 
L 153.9 0 
L 0 0 
z
" style="fill: #ffffff"/>
  </g>
  <g id="axes_1">
   <g id="patch_2">
    <path d="M 7.2 32.563636 
L 32.563636 32.563636 
L 32.563636 7.2 
L 7.2 7.2 
z
" style="fill: #ffffff"/>
   </g>
   <g id="matplotlib.axis_1"/>
   <g id="matplotlib.axis_2"/>
   <g id="line2d_1">
    <path d="M 7.2 11.170968 
L 15.942576 27.270389 
L 23.617745 31.024529 
L 24.380179 31.410744 
L 24.837639 30.150591 
L 32.563636 8.352893 
L 32.563636 8.352893 
" clip-path="url(#p002c8f1d8e)" style="fill: none; stroke: #000000; stroke-linecap: square"/>
   </g>
   <g id="patch_3">
    <path d="M 7.2 32.563636 
L 7.2 7.2 
" style="fill: none; stroke: #f547b3; stroke-width: 1.2; stroke-linejoin: miter; stroke-linecap: square"/>
   </g>
   <g id="patch_4">
    <path d="M 32.563636 32.563636 
L 32.563636 7.2 
" style="fill: none; stroke: #f547b3; stroke-width: 1.2; stroke-linejoin: miter; stroke-linecap: square"/>
   </g>
   <g id="patch_5">
    <path d="M 7.2 32.563636 
L 32.563636 32.563636 
" style="fill: none; stroke: #f547b3; stroke-width: 1.2; stroke-linejoin: miter; stroke-linecap: square"/>
   </g>
   <g id="patch_6">
    <path d="M 7.2 7.2 
L 32.563636 7.2 
" style="fill: none; stroke: #f547b3; stroke-width: 1.2; stroke-linejoin: miter; stroke-linecap: square"/>
   </g>
  </g>
  <g id="axes_2">
   <g id="patch_7">
    <path d="M 45.245455 32.563636 
L 70.609091 32.563636 
L 70.609091 7.2 
L 45.245455 7.2 
z
" style="fill: #ffffff"/>
   </g>
   <g id="matplotlib.axis_3"/>
   <g id="matplotlib.axis_4"/>
   <g id="line2d_2">
    <path d="M 45.245455 31.410744 
L 53.733886 20.87558 
L 53.886373 20.768359 
L 55.91953 22.267824 
L 57.647714 23.271566 
L 59.274239 23.959659 
L 60.951594 24.420779 
L 62.425633 24.653375 
L 62.933922 23.702387 
L 66.898579 15.839585 
L 70.609091 8.352893 
L 70.609091 8.352893 
" clip-path="url(#p1738668e85)" style="fill: none; stroke: #000000; stroke-linecap: square"/>
   </g>
   <g id="patch_8">
    <path d="M 45.245455 32.563636 
L 45.245455 7.2 
" style="fill: none; stroke: #f547b3; stroke-width: 1.2; stroke-linejoin: miter; stroke-linecap: square"/>
   </g>
   <g id="patch_9">
    <path d="M 70.609091 32.563636 
L 70.609091 7.2 
" style="fill: none; stroke: #f547b3; stroke-width: 1.2; stroke-linejoin: miter; stroke-linecap: square"/>
   </g>
   <g id="patch_10">
    <path d="M 45.245455 32.563636 
L 70.609091 32.563636 
" style="fill: none; stroke: #f547b3; stroke-width: 1.2; stroke-linejoin: miter; stroke-linecap: square"/>
   </g>
   <g id="patch_11">
    <path d="M 45.245455 7.2 
L 70.609091 7.2 
" style="fill: none; stroke: #f547b3; stroke-width: 1.2; stroke-linejoin: miter; stroke-linecap: square"/>
   </g>
  </g>
  <g id="axes_3">
   <g id="patch_12">
    <path d="M 83.290909 32.563636 
L 108.654545 32.563636 
L 108.654545 7.2 
L 83.290909 7.2 
z
" style="fill: #ffffff"/>
   </g>
   <g id="matplotlib.axis_5"/>
   <g id="matplotlib.axis_6"/>
   <g id="line2d_3">
    <path d="M 83.290909 25.307074 
L 90.966078 30.893576 
L 91.982656 31.402775 
L 93.405866 31.131378 
L 94.727418 30.650192 
L 95.998142 29.947339 
L 97.319694 28.9554 
L 98.793733 27.551856 
L 100.471088 25.635498 
L 101.690982 23.199161 
L 105.350665 15.457263 
L 108.654545 8.352893 
L 108.654545 8.352893 
" clip-path="url(#p43ef7ada1e)" style="fill: none; stroke: #000000; stroke-linecap: square"/>
   </g>
   <g id="patch_13">
    <path d="M 83.290909 32.563636 
L 83.290909 7.2 
" style="fill: none; stroke: #f547b3; stroke-width: 1.2; stroke-linejoin: miter; stroke-linecap: square"/>
   </g>
   <g id="patch_14">
    <path d="M 108.654545 32.563636 
L 108.654545 7.2 
" style="fill: none; stroke: #f547b3; stroke-width: 1.2; stroke-linejoin: miter; stroke-linecap: square"/>
   </g>
   <g id="patch_15">
    <path d="M 83.290909 32.563636 
L 108.654545 32.563636 
" style="fill: none; stroke: #f547b3; stroke-width: 1.2; stroke-linejoin: miter; stroke-linecap: square"/>
   </g>
   <g id="patch_16">
    <path d="M 83.290909 7.2 
L 108.654545 7.2 
" style="fill: none; stroke: #f547b3; stroke-width: 1.2; stroke-linejoin: miter; stroke-linecap: square"/>
   </g>
  </g>
  <g id="axes_4">
   <g id="patch_17">
    <path d="M 121.336364 32.563636 
L 146.7 32.563636 
L 146.7 7.2 
L 121.336364 7.2 
z
" style="fill: #ffffff"/>
   </g>
   <g id="matplotlib.axis_7"/>
   <g id="matplotlib.axis_8"/>
   <g id="line2d_4">
    <path d="M 121.336364 28.065707 
L 128.706559 31.130729 
L 129.977282 31.393196 
L 131.349663 30.720132 
L 132.620386 29.845692 
L 133.891109 28.691129 
L 135.212662 27.176986 
L 136.686701 25.127215 
L 138.414884 22.314147 
L 139.736437 20.241304 
L 142.633686 15.383701 
L 146.7 8.352893 
L 146.7 8.352893 
" clip-path="url(#pcb55420293)" style="fill: none; stroke: #000000; stroke-linecap: square"/>
   </g>
   <g id="patch_18">
    <path d="M 121.336364 32.563636 
L 121.336364 7.2 
" style="fill: none; stroke: #f547b3; stroke-width: 1.2; stroke-linejoin: miter; stroke-linecap: square"/>
   </g>
   <g id="patch_19">
    <path d="M 146.7 32.563636 
L 146.7 7.2 
" style="fill: none; stroke: #f547b3; stroke-width: 1.2; stroke-linejoin: miter; stroke-linecap: square"/>
   </g>
   <g id="patch_20">
    <path d="M 121.336364 32.563636 
L 146.7 32.563636 
" style="fill: none; stroke: #f547b3; stroke-width: 1.2; stroke-linejoin: miter; stroke-linecap: square"/>
   </g>
   <g id="patch_21">
    <path d="M 121.336364 7.2 
L 146.7 7.2 
" style="fill: none; stroke: #f547b3; stroke-width: 1.2; stroke-linejoin: miter; stroke-linecap: square"/>
   </g>
  </g>
  <g id="axes_5">
   <g id="patch_22">
    <path d="M 7.2 82.459636 
L 32.563636 82.459636 
L 32.563636 57.096 
L 7.2 57.096 
z
" style="fill: #ffffff"/>
   </g>
   <g id="matplotlib.axis_9"/>
   <g id="matplotlib.axis_10"/>
   <g id="line2d_5">
    <path d="M 7.2 81.079369 
L 8.62321 81.280659 
L 11.01217 80.910567 
L 12.333722 80.377831 
L 13.146985 79.911577 
L 15.2818 80.555775 
L 16.806668 80.467573 
L 17.416615 80.378099 
L 18.941483 79.939336 
L 20.720496 78.774739 
L 21.381272 78.145863 
L 23.058626 76.023873 
L 24.176863 74.28171 
L 24.481836 73.593704 
L 24.78681 72.870481 
L 25.650902 71.453866 
L 26.21002 70.726663 
L 27.124941 69.675847 
L 28.192348 68.098217 
L 29.717216 65.37586 
L 31.038768 62.640153 
L 32.563636 58.248893 
L 32.563636 58.248893 
" clip-path="url(#p683d275266)" style="fill: none; stroke: #000000; stroke-linecap: square"/>
   </g>
   <g id="patch_23">
    <path d="M 7.2 82.459636 
L 7.2 57.096 
" style="fill: none; stroke: #f547b3; stroke-width: 1.2; stroke-linejoin: miter; stroke-linecap: square"/>
   </g>
   <g id="patch_24">
    <path d="M 32.563636 82.459636 
L 32.563636 57.096 
" style="fill: none; stroke: #f547b3; stroke-width: 1.2; stroke-linejoin: miter; stroke-linecap: square"/>
   </g>
   <g id="patch_25">
    <path d="M 7.2 82.459636 
L 32.563636 82.459636 
" style="fill: none; stroke: #f547b3; stroke-width: 1.2; stroke-linejoin: miter; stroke-linecap: square"/>
   </g>
   <g id="patch_26">
    <path d="M 7.2 57.096 
L 32.563636 57.096 
" style="fill: none; stroke: #f547b3; stroke-width: 1.2; stroke-linejoin: miter; stroke-linecap: square"/>
   </g>
  </g>
  <g id="axes_6">
   <g id="patch_27">
    <path d="M 45.245455 82.459636 
L 70.609091 82.459636 
L 70.609091 57.096 
L 45.245455 57.096 
z
" style="fill: #ffffff"/>
   </g>
   <g id="matplotlib.axis_11"/>
   <g id="matplotlib.axis_12"/>
   <g id="line2d_6">
    <path d="M 45.245455 81.306744 
L 46.719494 80.88308 
L 49.108453 79.598264 
L 51.090782 77.805825 
L 51.192439 77.953911 
L 53.225597 80.805505 
L 54.49632 80.608998 
L 55.157096 80.48328 
L 57.546056 77.923855 
L 59.833358 74.796393 
L 61.053252 73.150771 
L 62.12066 71.583339 
L 62.57812 70.625818 
L 62.628949 70.476554 
L 62.679778 70.511132 
L 63.340554 71.064874 
L 64.00133 71.720442 
L 65.882 69.375907 
L 67.101895 67.290516 
L 68.423447 64.593498 
L 69.185881 62.709258 
L 70.609091 58.248893 
L 70.609091 58.248893 
" clip-path="url(#p7078d5002a)" style="fill: none; stroke: #000000; stroke-linecap: square"/>
   </g>
   <g id="patch_28">
    <path d="M 45.245455 82.459636 
L 45.245455 57.096 
" style="fill: none; stroke: #f547b3; stroke-width: 1.2; stroke-linejoin: miter; stroke-linecap: square"/>
   </g>
   <g id="patch_29">
    <path d="M 70.609091 82.459636 
L 70.609091 57.096 
" style="fill: none; stroke: #f547b3; stroke-width: 1.2; stroke-linejoin: miter; stroke-linecap: square"/>
   </g>
   <g id="patch_30">
    <path d="M 45.245455 82.459636 
L 70.609091 82.459636 
" style="fill: none; stroke: #f547b3; stroke-width: 1.2; stroke-linejoin: miter; stroke-linecap: square"/>
   </g>
   <g id="patch_31">
    <path d="M 45.245455 57.096 
L 70.609091 57.096 
" style="fill: none; stroke: #f547b3; stroke-width: 1.2; stroke-linejoin: miter; stroke-linecap: square"/>
   </g>
  </g>
  <g id="axes_7">
   <g id="patch_32">
    <path d="M 83.290909 82.459636 
L 108.654545 82.459636 
L 108.654545 57.096 
L 83.290909 57.096 
z
" style="fill: #ffffff"/>
   </g>
   <g id="matplotlib.axis_13"/>
   <g id="matplotlib.axis_14"/>
   <g id="line2d_7">
    <path d="M 83.290909 62.427294 
L 84.714119 60.527853 
L 86.899763 58.650678 
L 87.204737 58.523957 
L 88.983749 58.260084 
L 89.644525 58.314203 
L 91.626854 58.708462 
L 92.694261 58.894294 
L 94.930734 59.296394 
L 96.760576 59.808671 
L 97.98047 60.365717 
L 99.098707 61.107716 
L 100.318601 62.186982 
L 101.843469 63.868967 
L 104.283257 67.556914 
L 105.299836 69.80189 
L 107.078849 75.745347 
L 108.654545 81.306744 
L 108.654545 81.306744 
" clip-path="url(#p82608d8207)" style="fill: none; stroke: #000000; stroke-linecap: square"/>
   </g>
   <g id="patch_33">
    <path d="M 83.290909 82.459636 
L 83.290909 57.096 
" style="fill: none; stroke: #f547b3; stroke-width: 1.2; stroke-linejoin: miter; stroke-linecap: square"/>
   </g>
   <g id="patch_34">
    <path d="M 108.654545 82.459636 
L 108.654545 57.096 
" style="fill: none; stroke: #f547b3; stroke-width: 1.2; stroke-linejoin: miter; stroke-linecap: square"/>
   </g>
   <g id="patch_35">
    <path d="M 83.290909 82.459636 
L 108.654545 82.459636 
" style="fill: none; stroke: #f547b3; stroke-width: 1.2; stroke-linejoin: miter; stroke-linecap: square"/>
   </g>
   <g id="patch_36">
    <path d="M 83.290909 57.096 
L 108.654545 57.096 
" style="fill: none; stroke: #f547b3; stroke-width: 1.2; stroke-linejoin: miter; stroke-linecap: square"/>
   </g>
  </g>
  <g id="axes_8">
   <g id="patch_37">
    <path d="M 121.336364 82.459636 
L 146.7 82.459636 
L 146.7 57.096 
L 121.336364 57.096 
z
" style="fill: #ffffff"/>
   </g>
   <g id="matplotlib.axis_15"/>
   <g id="matplotlib.axis_16"/>
   <g id="line2d_8">
    <path d="M 121.336364 58.248893 
L 124.182784 58.566876 
L 126.165112 58.866632 
L 127.435835 59.210784 
L 129.468993 61.094618 
L 130.99386 61.227578 
L 131.349663 61.152517 
L 132.976189 60.582486 
L 134.297741 60.292555 
L 135.924267 60.207754 
L 136.73753 60.327205 
L 137.906595 60.840043 
L 138.770687 61.410641 
L 141.46462 66.902927 
L 143.192804 71.087553 
L 144.666843 75.168105 
L 146.445855 80.529597 
L 146.7 81.306744 
L 146.7 81.306744 
" clip-path="url(#p8abe2e3d26)" style="fill: none; stroke: #000000; stroke-linecap: square"/>
   </g>
   <g id="patch_38">
    <path d="M 121.336364 82.459636 
L 121.336364 57.096 
" style="fill: none; stroke: #f547b3; stroke-width: 1.2; stroke-linejoin: miter; stroke-linecap: square"/>
   </g>
   <g id="patch_39">
    <path d="M 146.7 82.459636 
L 146.7 57.096 
" style="fill: none; stroke: #f547b3; stroke-width: 1.2; stroke-linejoin: miter; stroke-linecap: square"/>
   </g>
   <g id="patch_40">
    <path d="M 121.336364 82.459636 
L 146.7 82.459636 
" style="fill: none; stroke: #f547b3; stroke-width: 1.2; stroke-linejoin: miter; stroke-linecap: square"/>
   </g>
   <g id="patch_41">
    <path d="M 121.336364 57.096 
L 146.7 57.096 
" style="fill: none; stroke: #f547b3; stroke-width: 1.2; stroke-linejoin: miter; stroke-linecap: square"/>
   </g>
  </g>
 </g>
 <defs>
  <clipPath id="p002c8f1d8e">
   <rect x="7.2" y="7.2" width="25.363636" height="25.363636"/>
  </clipPath>
  <clipPath id="p1738668e85">
   <rect x="45.245455" y="7.2" width="25.363636" height="25.363636"/>
  </clipPath>
  <clipPath id="p43ef7ada1e">
   <rect x="83.290909" y="7.2" width="25.363636" height="25.363636"/>
  </clipPath>
  <clipPath id="pcb55420293">
   <rect x="121.336364" y="7.2" width="25.363636" height="25.363636"/>
  </clipPath>
  <clipPath id="p683d275266">
   <rect x="7.2" y="57.096" width="25.363636" height="25.363636"/>
  </clipPath>
  <clipPath id="p7078d5002a">
   <rect x="45.245455" y="57.096" width="25.363636" height="25.363636"/>
  </clipPath>
  <clipPath id="p82608d8207">
   <rect x="83.290909" y="57.096" width="25.363636" height="25.363636"/>
  </clipPath>
  <clipPath id="p8abe2e3d26">
   <rect x="121.336364" y="57.096" width="25.363636" height="25.363636"/>
  </clipPath>
 </defs>
</svg>
